<?xml version="1.0" encoding="UTF-8"?>
<svg xmlns="http://www.w3.org/2000/svg" viewBox="0 0 1150.50099 893.46052">
  <defs>
    <style>
      .uuid-f54f7e19-b110-4fa0-bb26-f1d438c4bc16 {
        fill: #74726f;
      }
    </style>
  </defs>
  <g id="uuid-e0445c5b-44a1-4c70-8420-dfa2041bdff0" data-name="Ebene 2">
    <polygon class="uuid-f54f7e19-b110-4fa0-bb26-f1d438c4bc16" points="255.76161 662.42254 291.99451 776.23645 309.04528 806.50157 356.78745 811.19054 443.7464 792.43468 558.83913 762.16956 561.95177 749.71898 555.13405 728.36294 536.3782 707.90201 469.88018 689.71989 466.04375 683.32585 471.15898 674.37419 469.02764 662.01238 482.11064 653.47088 494.47245 657.30731 508.11307 686.71989 518.76981 685.44108 526.44265 682.03093 527.72146 693.96647 536.24685 700.36051 546.05104 702.91813 554.57643 715.27994 558.83913 714.85367 560.5442 694.81901 555.85524 685.44108 554.15016 673.50554 540.50954 672.22673 526.85281 657.73358 521.73758 639.404 528.574 630.87861 534.1155 630.87861 537.95193 642.38788 550.74001 647.07684 552.44508 656.88104 562.67555 667.1115 568.64332 661.14373 566.51197 640.6828 568.64332 634.71503 580.15259 633.00996 596.35083 641.10907 609.13891 647.92938 621.50072 653.04461 630.87865 655.17596 612.12279 676.06316 602.74487 686.29362 604.87622 690.55631 613.4016 691.40885 610.84399 698.65543 585.69409 697.37662 572.05348 700.36051 567.79078 706.32828 570.77467 714.85367 566.0857 725.08413 565.23317 737.87221 572.47974 752.79164 578.87378 763.87464 590.80933 771.54749 607.00756 771.54749 613.4016 791.15588 649.20823 795.41857 677.76828 792.86095 683.30978 788.59826 683.30978 782.20422 664.55393 777.94153 668.39035 770.69495 702.06563 743.83998 711.86982 771.54749 728.49433 769.41614 743.41376 782.63049 751.0866 778.3678 755.77557 799.25499 747.25018 804.7965 762.59588 820.56846 770.26873 816.73204 786.46696 825.68369 828.66763 852.53866 834.20913 879.39363 856.8014 893.46052 908.38 874.70467 916.05285 860.21151 1021.76765 833.35654 1040.09723 849.55477 1035.40826 875.98347 1046.49127 882.80378 1071.64116 870.86824 1064.39458 858.50643 1076.75639 858.9327 1147.09084 801.81261 1150.50099 778.79407 1130.04006 779.22034 1068.231 737.44594 1043.08111 691.83512 1043.08111 637.27265 1017.07868 609.99141 982.55086 595.07198 973.17294 560.54417 987.6661 550.73997 990.64998 519.62231 1006.42195 508.53931 1013.24226 491.06227 996.19148 485.82194 979.14071 500.44019 934.8087 485.82194 910.08507 509.81812 915.62658 521.75366 948.02305 534.96801 936.51377 553.72386 933.95616 571.2009 904.96984 584.84152 888.34534 549.0349 878.96741 556.70775 855.5226 532.83666 858.50648 523.03247 848.70229 516.21216 844.01332 500.01392 831.22524 502.14527 809.05924 485.82194 806.50162 492.76735 794.99235 478.70046 796.27116 445.02518 782.20427 436.07352 784.76188 422.85918 777.94157 406.66094 782.63054 397.28302 807.78043 397.28302 806.50162 352.09847 771.9738 296.68345 751.0866 292.84703 742.13495 300.94615 734.03583 297.53599 733.18329 261.72937 716.13252 252.35144 707.60713 234.44813 650.91331 161.12981 656.88108 121.91303 645.3718 117.22407 634.71507 97.61568 621.92699 86.95894 622.35326 70.33444 597.20337 35.80662 565.65943 4.26269 530.70535 0 523.45877 10.23046 471.02764 31.54393 387.05257 109.97749 384.49496 140.66888 311.17663 209.29824 312.88171 223.7914 285.60047 237.00575 292.42078 247.66248 254.05654 248.51502 79.71237 251.92517 6.82031 261.72937 0 270.25476 49.87351 306.48765 86.53268 355.93489 86.53268 445.02518 106.56734 464.63357 115.94526 485.82194 139.81635 493.61988 180.73821 556.70775 186.70598 604.02364 255.76161 662.42254"/>
  </g>
  <g id="uuid-b6e1fc2c-1701-46cd-98d6-2e96c8e9a6f7" data-name="Pearlharbor">
    <polygon points="635.76952 675.90679 633.00273 701.21305 643.54389 690.96558 645.80271 704.5185 660.48503 714.30671 660.8615 720.7067 666.88502 721.83611 669.52031 716.942 692.10849 716.942 688.72027 732.75373 672.90853 734.25961 648.06152 726.73022 630.87865 748.189 609.28513 749.31841 596.48516 749.69488 597.99104 758.73015 613.80277 755.34192 607.00756 771.54749 590.80933 771.54749 578.87378 763.87464 572.47974 752.79164 565.23317 737.87221 566.0857 725.08413 570.77467 714.85367 567.79078 706.32828 572.05348 700.36051 585.69409 697.37662 610.84399 698.65543 613.4016 691.40885 604.87622 690.55631 602.74487 686.29362 612.12279 676.06316 615.21153 672.62343 635.76952 675.90679"/>
    <polygon points="570.13227 696.52409 582.55577 691.34205 585.19106 682.68325 596.86163 677.41267 601.0028 668.00092 590.08517 668.00092 582.93224 661.97741 573.5205 672.62343 565.23317 683.05972 570.13227 696.52409"/>
    <polygon points="534.1155 630.87861 537.95193 642.38788 550.74001 647.07684 552.44508 656.88104 562.67555 667.1115 568.64332 661.14373 566.51197 640.6828 568.64332 634.71503 568.64332 625.45983 534.1155 630.87861"/>
    <polygon points="494.47245 657.30731 508.11307 686.71989 518.76981 685.44108 526.44265 682.03093 527.72146 693.96647 536.24685 700.36051 546.05104 702.91813 554.57643 715.27994 558.83913 714.85367 560.5442 694.81901 555.85524 685.44108 554.15016 673.50554 540.50954 672.22673 526.85281 657.73358 494.47245 657.30731"/>
    <polygon points="558.83913 762.16956 561.95177 749.71898 555.13405 728.36294 536.3782 707.90201 469.88018 689.71989 466.97954 702.63615 478.6501 729.74197 514.46565 753.0831 521.94413 744.04783 534.1155 759.10662 522.69707 762.16956 538.09526 767.62443 558.83913 762.16956"/>
  </g>
</svg>