<?xml version="1.0" encoding="UTF-8"?>
<svg id="uuid-d12e1156-6a73-4f03-a228-731dc9112576" data-name="Ebene 1" xmlns="http://www.w3.org/2000/svg" viewBox="0 0 773.32243 292.59047">
  <defs>
    <style>
      .uuid-5115015f-bbf7-4cf2-afd7-6b8e43793539 {
        fill: #fff;
      }
    </style>
  </defs>
  <path class="uuid-5115015f-bbf7-4cf2-afd7-6b8e43793539" d="M428.79401,54.17499c-6.39282,0-12.40151-1.03638-17.8963-3.41964-9.18377-4.5504-17.46439-9.32394-25.46823-13.94244-20.05642-11.56712-39.001-22.4929-64.43047-25.25245-32.0942-5.56289-54.83917,7.14986-78.89532,20.61213-9.03757,5.05983-18.38639,10.29263-28.39522,14.63675-19.15335,8.30996-42.95651,8.30996-62.11036,0-4.25163-2.20392-8.33384-4.38536-12.47911-6.59919C96.91951,17.66155,49.09408-7.89173,6.06451,26.7459c-1.6044,1.29324-3.95345,1.03638-5.23975-.56571-1.29134-1.60184-1.03886-3.94832.56513-5.23967,46.87409-37.73916,99.19876-9.77081,141.2432,12.69284,4.12089,2.20144,8.18368,4.37097,12.1739,6.45109,17.08571,7.40433,38.61736,7.39937,55.93117-.1143,9.66882-4.19353,18.84764-9.33394,27.72025-14.30187,24.13367-13.50838,49.1019-27.48017,83.57936-21.48586,26.75462,2.89525,46.35921,14.19988,67.11456,26.17196,7.90681,4.56032,16.08066,9.27568,24.88566,13.64219,21.03213,9.12022,53.77651-5.91232,85.45269-20.4446,27.0652-12.41845,55.08174-25.28633,76.97769-23.35928,21.15346,2.61839,38.22917,13.39913,54.74231,23.82499,9.557,6.03356,18.58069,11.7296,28.30778,15.95247,39.9911,15.41858,80.73477-5.42917,107.84815-25.64567,1.65515-1.2401,3.99023-.88828,5.21793.75993,1.2282,1.65019.88869,3.98477-.76191,5.21545-41.03946,30.60112-80.85609,39.79184-115.12933,26.56767-10.3971-4.50916-20.0903-10.62768-29.46292-16.54438-15.81875-9.98949-32.17627-20.31593-51.53838-22.71861-19.83327-1.70391-46.89847,10.7052-73.08986,22.72356-25.65262,11.76786-51.9802,23.84689-73.80813,23.84689Z"/>
  <path class="uuid-5115015f-bbf7-4cf2-afd7-6b8e43793539" d="M428.79401,113.78068c-6.39737,0-12.40151-1.03638-17.8963-3.41964-9.18377-4.5504-17.45944-9.32436-25.46377-13.94285-20.05592-11.56654-39.0005-22.49497-64.43494-25.25451-32.0942-5.55785-54.83917,7.14746-78.89532,20.61221-9.03757,5.05983-18.38639,10.29263-28.39522,14.63675-19.15335,8.31442-42.95651,8.31442-62.11036,0-4.25163-2.20392-8.3388-4.38783-12.48407-6.60365-42.20444-22.54662-90.02499-48.09238-133.04952-13.45979-1.6044,1.29333-3.95345,1.03621-5.23975-.56563-1.29134-1.60192-1.03886-3.94849.56513-5.23975,46.85475-37.73412,99.18934-9.77577,141.23369,12.69036,4.12593,2.20136,8.18822,4.37345,12.18341,6.45349,17.09017,7.40441,38.62232,7.40193,55.93117-.1143,9.66882-4.19345,18.84764-9.33386,27.72025-14.30179,24.13367-13.50847,49.10685-27.48264,83.57936-21.48594,26.75908,2.89525,46.36417,14.20236,67.11952,26.17444,7.9069,4.5604,16.08066,9.27584,24.8807,13.64227,21.03213,9.11319,53.77155-5.91472,85.45765-20.44708,27.0652-12.41853,55.11604-25.28393,76.97273-23.35928,21.15346,2.6183,38.22917,13.39904,54.74231,23.82499,9.557,6.03356,18.58069,11.7296,28.30778,15.95239,39.9911,15.42065,80.73477-5.42661,107.84815-25.64567,1.65515-1.2401,3.99023-.8882,5.21793.76001,1.2282,1.65019.88869,3.98469-.76191,5.21545-41.03946,30.60112-80.85609,39.79184-115.12933,26.56759-10.3971-4.50908-20.0903-10.6276-29.46292-16.54438-15.81875-9.98941-32.17627-20.31593-51.53838-22.71861-19.8427-1.70879-46.90343,10.71016-73.08986,22.72356-25.64815,11.76786-51.9802,23.8468-73.80813,23.84937Z"/>
  <path class="uuid-5115015f-bbf7-4cf2-afd7-6b8e43793539" d="M428.79401,173.38397c-6.39737,0-12.40151-1.0363-17.8963-3.41964-9.18377-4.5504-17.45944-9.32444-25.46377-13.94294-20.05592-11.56902-39.0005-22.49488-64.43494-25.25451-32.11809-5.55281-54.84413,7.15234-78.89532,20.61213-9.03757,5.05983-18.38639,10.29272-28.39522,14.63683-19.1583,8.31451-42.95205,8.31451-62.11036,0-4.25163-2.20383-8.3388-4.38792-12.48407-6.60357-42.20444-22.54679-90.02499-48.0899-133.04952-13.45979-1.6044,1.29076-3.95345,1.0363-5.23975-.56563-1.29134-1.60201-1.03886-3.94857.56513-5.23983,46.85475-37.73404,99.18934-9.78064,141.23369,12.69036,4.12593,2.20144,8.18822,4.37345,12.18341,6.45357,17.08571,7.40441,38.61736,7.40441,55.93117-.1143,9.66882-4.19353,18.84764-9.33386,27.72521-14.30179,24.12871-13.50599,49.1019-27.47826,83.5744-21.48594,26.75908,2.89525,46.36417,14.20228,67.11952,26.17453,7.9069,4.56032,16.08066,9.27568,24.8807,13.64219,21.03213,9.11319,53.77155-5.9148,85.45765-20.44717,27.0652-12.42093,55.11604-25.30319,76.97273-23.35928,21.15346,2.61839,38.22917,13.39913,54.74231,23.82499,9.557,6.03356,18.58069,11.7296,28.30778,15.95247,39.9911,15.42304,80.72981-5.43173,107.84815-25.6432,1.65515-1.23762,3.99023-.8882,5.21793.76001,1.2282,1.65011.88869,3.98469-.76191,5.21537-41.0345,30.60112-80.85609,39.79184-115.12933,26.56519-10.3971-4.50916-20.0903-10.62768-29.46292-16.54438-15.81875-9.98949-32.17627-20.31593-51.53838-22.71861-19.8427-1.70135-46.90343,10.71016-73.08986,22.72356-25.64815,11.76786-51.9802,23.84689-73.80813,23.84937Z"/>
  <path class="uuid-5115015f-bbf7-4cf2-afd7-6b8e43793539" d="M428.79401,232.98726c-6.39737,0-12.40151-1.03638-17.8963-3.41964-9.18824-4.5504-17.46439-9.32642-25.47319-13.94492-20.05146-11.56703-38.99604-22.4929-64.42551-25.25245-32.11809-5.55554-54.84413,7.15234-78.89532,20.61213-9.03757,5.05983-18.38639,10.29263-28.39522,14.63675-19.1583,8.31194-42.95205,8.31442-62.11036,0-4.25163-2.20383-8.3388-4.38783-12.48407-6.60365-42.20444-22.54662-90.02499-48.0899-133.04952-13.45979-1.6044,1.29085-3.95345,1.03638-5.23975-.56563-1.29134-1.60192-1.03886-3.94841.56513-5.23975,46.85475-37.73412,99.18934-9.77577,141.23369,12.69036,4.12593,2.20127,8.18822,4.37337,12.18341,6.45357,17.09017,7.40433,38.62232,7.40185,55.93117-.11438,9.66882-4.19345,18.84764-9.33386,27.72521-14.3017,24.12871-13.50351,49.1019-27.47579,83.5744-21.48594,26.75462,2.89525,46.35921,14.20236,67.11456,26.17196,7.90681,4.56032,16.08066,9.27576,24.88566,13.64467,21.03213,9.1127,53.77651-5.90976,85.45269-20.44708,27.0652-12.41647,55.08174-25.28633,76.97769-23.3568,21.15346,2.61839,38.22917,13.39665,54.74231,23.82242,9.55254,6.03364,18.58069,11.73216,28.30778,15.95247,39.97176,15.41618,80.72981-5.42661,107.84815-25.64311,1.65515-1.2401,3.99023-.8882,5.21793.75993,1.2282,1.65019.88869,3.98477-.76191,5.21545-41.0345,30.6036-80.85609,39.79184-115.12933,26.56519-10.3971-4.50668-20.0903-10.62776-29.46292-16.54446-15.81875-9.98941-32.18123-20.31584-51.53838-22.71604-19.83327-1.69193-46.89847,10.7052-73.08986,22.72356-25.65262,11.76786-51.9802,23.84433-73.80813,23.84689Z"/>
  <path class="uuid-5115015f-bbf7-4cf2-afd7-6b8e43793539" d="M428.79401,292.59047c-6.39282,0-12.40151-1.0363-17.8963-3.41964-9.18377-4.55032-17.46439-9.32436-25.46823-13.94285-20.05642-11.56654-39.001-22.49307-64.43047-25.25203-32.10362-5.56281-54.83917,7.1449-78.89532,20.60965-9.03757,5.05991-18.38639,10.29272-28.39522,14.63683-19.1583,8.31434-42.95205,8.31434-62.11036,0-4.25163-2.20392-8.33384-4.38536-12.48407-6.60117-42.19006-22.54414-90.01995-48.10229-133.04952-13.46037-1.6044,1.29142-3.95345,1.03638-5.23975-.56505-1.29134-1.60201-1.03886-3.94899.56513-5.23975,46.85971-37.7366,99.18934-9.77329,141.23865,12.68788,4.12097,2.20383,8.18326,4.37345,12.17845,6.45349,17.08571,7.40441,38.61736,7.40441,55.93117-.1143,9.66882-4.19353,18.84764-9.33386,27.72521-14.30179,24.12871-13.50855,49.07305-27.4876,83.5744-21.48346,26.75462,2.89517,46.35921,14.19988,67.11456,26.17205,7.90681,4.56032,16.08066,9.27576,24.88566,13.64219,21.03213,9.12014,53.77651-5.90976,85.45269-20.4446,27.0652-12.42151,55.08174-25.27699,76.97769-23.35928,21.15346,2.61839,38.22917,13.39913,54.74231,23.82251,9.55254,6.03348,18.58069,11.73208,28.30778,15.95239,39.9911,15.42065,80.73477-5.42661,107.84815-25.6432,1.65515-1.2401,3.99023-.8882,5.21793.76001,1.2282,1.65019.88869,3.98477-.76191,5.21545-41.02996,30.60112-80.85609,39.79928-115.12933,26.56511-10.3971-4.5066-20.0903-10.6276-29.46292-16.54438-15.82371-9.98701-32.18123-20.31593-51.53838-22.71621-19.83327-1.70127-46.89847,10.70528-73.08986,22.72365-25.65262,11.76786-51.9802,23.84689-73.80813,23.84689Z"/>
</svg>